<?xml version="1.0" encoding="UTF-8" standalone="no"?>
<!DOCTYPE svg PUBLIC "-//W3C//DTD SVG 1.1//EN" "http://www.w3.org/Graphics/SVG/1.1/DTD/svg11.dtd">
<svg width="100%" height="100%" viewBox="0 0 8334 8334" version="1.1" xmlns="http://www.w3.org/2000/svg" xmlns:xlink="http://www.w3.org/1999/xlink" xml:space="preserve" xmlns:serif="http://www.serif.com/" style="fill-rule:evenodd;clip-rule:evenodd;stroke-miterlimit:10;">
    <g transform="matrix(1,0,0,1,-9319.26,-18928.5)">
        <g id="Sample" transform="matrix(0.999334,0,0,1.03273,-118.631,-23.4411)">
            <rect x="9444.18" y="18351.3" width="8338.89" height="8069.2" style="fill:none;"/>
            <clipPath id="_clip1">
                <rect x="9444.18" y="18351.3" width="8338.89" height="8069.2"/>
            </clipPath>
            <g clip-path="url(#_clip1)">
                <g transform="matrix(1.00067,0,0,0.968304,71.5101,519.513)">
                    <g transform="matrix(4.16667,0,0,4.16667,11133.9,21006.7)">
                        <path d="M0,-94.55C9.676,-97.181 19.262,-100.062 28.502,-103.939C48.978,-112.53 67.819,-126.447 78.839,-145.706C90.821,-166.647 92.589,-191.663 99.009,-214.913C114.075,-269.48 157.391,-315.429 211.019,-333.731C264.646,-352.034 327.057,-342.167 372.405,-308.218C378.217,-303.867 383.738,-299.127 388.933,-294.056C394.15,-288.962 399.039,-283.533 403.573,-277.824C408.11,-272.11 412.291,-266.116 416.095,-259.891C419.9,-253.663 423.327,-247.204 426.353,-240.563C429.379,-233.922 432.004,-227.1 434.204,-220.143C436.403,-213.191 438.179,-206.105 439.505,-198.935C440.83,-191.769 441.707,-184.52 442.111,-177.244C442.313,-173.604 442.396,-169.958 442.358,-166.313C442.34,-164.576 441.998,-162.601 442.264,-160.889C442.586,-158.819 442.445,-156.664 442.445,-154.559C442.445,-145.168 442.445,-135.777 442.444,-126.386C442.444,-116.995 442.444,-107.604 442.443,-98.213L442.443,-70.041C442.442,-60.65 442.442,-51.259 442.442,-41.868C442.441,-32.477 442.441,-23.086 442.441,-13.695C442.44,-4.304 442.44,5.087 442.44,14.478C442.44,23.869 442.439,33.26 442.439,42.651C442.439,52.042 442.438,61.433 442.438,70.824C442.438,80.214 442.437,89.605 442.437,98.996C442.437,108.387 442.437,117.778 442.436,127.169C442.436,136.56 442.436,145.951 442.435,155.342C442.435,164.733 442.435,174.124 442.434,183.515L442.434,211.688C442.433,221.079 442.433,230.47 442.433,239.861C442.432,244.932 442.432,250.003 442.432,255.074C326.356,255.766 210.28,256.458 94.203,257.149C38.012,257.484 -20.973,257.149 -70.251,230.177C-128.165,198.477 -163.346,130.184 -156.729,64.555C-150.111,-1.074 -102.718,-60.55 -40.583,-82.898C-27.346,-87.659 -13.584,-90.857 0,-94.55" style="fill:rgb(46,136,255);fill-rule:nonzero;"/>
                    </g>
                    <g transform="matrix(4.16667,0,0,4.16667,11133.9,20989.6)">
                        <path d="M0,-94.55C9.676,-97.181 19.262,-100.062 28.502,-103.939C48.978,-112.53 67.819,-126.447 78.839,-145.706C90.821,-166.647 92.589,-191.663 99.009,-214.913C114.075,-269.48 157.391,-315.429 211.019,-333.731C264.646,-352.034 327.057,-342.167 372.405,-308.218C378.217,-303.867 383.738,-299.127 388.933,-294.056C394.15,-288.962 399.039,-283.533 403.573,-277.824C408.11,-272.11 412.291,-266.116 416.095,-259.891C419.9,-253.663 423.327,-247.204 426.353,-240.563C429.379,-233.922 432.004,-227.1 434.204,-220.143C436.403,-213.191 438.179,-206.105 439.505,-198.935C440.83,-191.769 441.707,-184.52 442.111,-177.244C442.313,-173.604 442.396,-169.958 442.358,-166.313C442.34,-164.576 441.998,-162.601 442.264,-160.889C442.586,-158.819 442.445,-156.664 442.445,-154.559C442.445,-145.168 442.445,-135.777 442.444,-126.386C442.444,-116.995 442.444,-107.604 442.443,-98.213L442.443,-70.041C442.442,-60.65 442.442,-51.259 442.442,-41.868C442.441,-32.477 442.441,-23.086 442.441,-13.695C442.44,-4.304 442.44,5.087 442.44,14.478C442.44,23.869 442.439,33.26 442.439,42.651C442.439,52.042 442.438,61.433 442.438,70.824C442.438,80.214 442.437,89.605 442.437,98.996C442.437,108.387 442.437,117.778 442.436,127.169C442.436,136.56 442.436,145.951 442.435,155.342C442.435,164.733 442.435,174.124 442.434,183.515L442.434,211.688C442.433,221.079 442.433,230.47 442.433,239.861C442.432,244.932 442.432,250.003 442.432,255.074C326.356,255.766 210.28,256.458 94.203,257.149C38.012,257.484 -20.973,257.149 -70.251,230.177C-128.165,198.477 -163.346,130.184 -156.729,64.555C-150.111,-1.074 -102.718,-60.55 -40.583,-82.898C-27.346,-87.659 -13.584,-90.857 0,-94.55Z" style="fill:none;fill-rule:nonzero;stroke:rgb(46,136,255);stroke-width:100px;"/>
                    </g>
                    <g transform="matrix(4.16667,0,0,4.16667,11134.6,24174.6)">
                        <path d="M0,94.55C9.665,97.181 19.238,100.062 28.467,103.939C48.919,112.53 67.738,126.447 78.744,145.707C90.711,166.647 92.478,191.662 98.89,214.913C113.938,269.48 157.202,315.429 210.765,333.731C264.328,352.034 326.664,342.167 371.957,308.218C377.763,303.867 383.277,299.127 388.465,294.056C393.677,288.962 398.56,283.533 403.088,277.824C407.62,272.11 411.796,266.116 415.594,259.891C419.395,253.663 422.818,247.204 425.84,240.563C428.862,233.922 431.484,227.1 433.682,220.143C435.879,213.191 437.652,206.105 438.977,198.935C440.301,191.769 441.176,184.52 441.579,177.244C441.781,173.604 441.864,169.958 441.826,166.313C441.808,164.576 441.467,162.601 441.733,160.89C442.054,158.819 441.914,156.664 441.913,154.559L441.913,126.386C441.912,116.995 441.912,107.604 441.912,98.214C441.911,88.823 441.911,79.432 441.911,70.041C441.91,60.65 441.91,51.259 441.91,41.868L441.909,13.695C441.909,4.304 441.908,-5.087 441.908,-14.478C441.908,-23.869 441.907,-33.26 441.907,-42.651L441.906,-70.823C441.906,-80.214 441.906,-89.605 441.905,-98.996C441.905,-108.387 441.905,-117.778 441.904,-127.169L441.904,-155.342C441.903,-164.733 441.903,-174.124 441.903,-183.515C441.902,-192.906 441.902,-202.297 441.902,-211.688C441.901,-221.079 441.901,-230.47 441.901,-239.86C441.901,-244.932 441.901,-250.003 441.9,-255.074C325.964,-255.766 210.027,-256.458 94.09,-257.149C37.966,-257.484 -20.948,-257.149 -70.167,-230.177C-128.011,-198.477 -163.15,-130.184 -156.54,-64.555C-149.931,1.074 -102.594,60.55 -40.534,82.898C-27.313,87.659 -13.567,90.857 0,94.55" style="fill:rgb(46,136,255);fill-rule:nonzero;stroke:rgb(31,160,99);stroke-width:0.24px;stroke-linejoin:round;stroke-miterlimit:2;"/>
                    </g>
                    <g transform="matrix(4.16667,0,0,4.16667,11134.6,24174.6)">
                        <path d="M0,94.55C9.665,97.181 19.238,100.062 28.467,103.939C48.919,112.53 67.738,126.447 78.744,145.707C90.711,166.647 92.478,191.662 98.89,214.913C113.938,269.48 157.202,315.429 210.765,333.731C264.328,352.034 326.664,342.167 371.957,308.218C377.763,303.867 383.277,299.127 388.465,294.056C393.677,288.962 398.56,283.533 403.088,277.824C407.62,272.11 411.796,266.116 415.594,259.891C419.395,253.663 422.818,247.204 425.84,240.563C428.862,233.922 431.484,227.1 433.682,220.143C435.879,213.191 437.652,206.105 438.977,198.935C440.301,191.769 441.176,184.52 441.579,177.244C441.781,173.604 441.864,169.958 441.826,166.313C441.808,164.576 441.467,162.601 441.733,160.89C442.054,158.819 441.914,156.664 441.913,154.559L441.913,126.386C441.912,116.995 441.912,107.604 441.912,98.214C441.911,88.823 441.911,79.432 441.911,70.041C441.91,60.65 441.91,51.259 441.91,41.868L441.909,13.695C441.909,4.304 441.908,-5.087 441.908,-14.478C441.908,-23.869 441.907,-33.26 441.907,-42.651L441.906,-70.823C441.906,-80.214 441.906,-89.605 441.905,-98.996C441.905,-108.387 441.905,-117.778 441.904,-127.169L441.904,-155.342C441.903,-164.733 441.903,-174.124 441.903,-183.515C441.902,-192.906 441.902,-202.297 441.902,-211.688C441.901,-221.079 441.901,-230.47 441.901,-239.86C441.901,-244.932 441.901,-250.003 441.9,-255.074C325.964,-255.766 210.027,-256.458 94.09,-257.149C37.966,-257.484 -20.948,-257.149 -70.167,-230.177C-128.011,-198.477 -163.15,-130.184 -156.54,-64.555C-149.931,1.074 -102.594,60.55 -40.534,82.898C-27.313,87.659 -13.567,90.857 0,94.55Z" style="fill:none;fill-rule:nonzero;stroke:rgb(46,136,255);stroke-width:100px;"/>
                    </g>
                    <g transform="matrix(4.16667,0,0,4.16667,15932.2,24174.6)">
                        <path d="M0,94.55C-9.676,97.181 -19.262,100.062 -28.502,103.939C-48.978,112.53 -67.819,126.447 -78.839,145.707C-90.821,166.647 -92.589,191.662 -99.009,214.913C-114.075,269.48 -157.391,315.429 -211.019,333.731C-264.646,352.034 -327.057,342.167 -372.405,308.218C-378.217,303.867 -383.738,299.127 -388.933,294.056C-394.15,288.962 -399.039,283.533 -403.573,277.824C-408.11,272.11 -412.291,266.116 -416.095,259.891C-419.9,253.663 -423.327,247.204 -426.353,240.563C-429.379,233.922 -432.004,227.1 -434.204,220.143C-436.403,213.191 -438.179,206.105 -439.505,198.935C-440.83,191.769 -441.707,184.52 -442.111,177.244C-442.312,173.604 -442.396,169.958 -442.358,166.313C-442.34,164.576 -441.998,162.601 -442.264,160.89C-442.586,158.819 -442.445,156.664 -442.445,154.559C-442.445,145.168 -442.445,135.777 -442.444,126.386C-442.444,116.995 -442.444,107.604 -442.443,98.214L-442.443,70.041C-442.442,60.65 -442.442,51.259 -442.442,41.868C-442.441,32.477 -442.441,23.086 -442.441,13.695C-442.44,4.304 -442.44,-5.087 -442.44,-14.478C-442.44,-23.869 -442.439,-33.26 -442.439,-42.651C-442.439,-52.042 -442.438,-61.433 -442.438,-70.823C-442.438,-80.214 -442.437,-89.605 -442.437,-98.996C-442.437,-108.387 -442.437,-117.778 -442.436,-127.169C-442.436,-136.56 -442.436,-145.951 -442.435,-155.342C-442.435,-164.733 -442.435,-174.124 -442.434,-183.515L-442.434,-211.688C-442.433,-221.079 -442.433,-230.47 -442.433,-239.86C-442.432,-244.932 -442.432,-250.003 -442.432,-255.074C-326.356,-255.766 -210.28,-256.458 -94.203,-257.149C-38.012,-257.484 20.973,-257.149 70.251,-230.177C128.165,-198.477 163.346,-130.184 156.729,-64.555C150.111,1.074 102.718,60.55 40.583,82.898C27.346,87.659 13.583,90.857 0,94.55" style="fill:rgb(46,136,255);fill-rule:nonzero;"/>
                    </g>
                    <g transform="matrix(4.16667,0,0,4.16667,15862.9,24174.6)">
                        <path d="M0,94.55C-9.676,97.181 -19.262,100.062 -28.502,103.939C-48.978,112.53 -67.819,126.447 -78.839,145.707C-90.821,166.647 -92.589,191.662 -99.009,214.913C-114.075,269.48 -157.391,315.429 -211.019,333.731C-264.646,352.034 -327.057,342.167 -372.405,308.218C-378.217,303.867 -383.738,299.127 -388.933,294.056C-394.15,288.962 -399.039,283.533 -403.573,277.824C-408.11,272.11 -412.291,266.116 -416.095,259.891C-419.9,253.663 -423.327,247.204 -426.353,240.563C-429.379,233.922 -432.004,227.1 -434.204,220.143C-436.403,213.191 -438.179,206.105 -439.505,198.935C-440.83,191.769 -441.707,184.52 -442.111,177.244C-442.312,173.604 -442.396,169.958 -442.358,166.313C-442.34,164.576 -441.998,162.601 -442.264,160.89C-442.586,158.819 -442.445,156.664 -442.445,154.559C-442.445,145.168 -442.445,135.777 -442.444,126.386C-442.444,116.995 -442.444,107.604 -442.443,98.214L-442.443,70.041C-442.442,60.65 -442.442,51.259 -442.442,41.868C-442.441,32.477 -442.441,23.086 -442.441,13.695C-442.44,4.304 -442.44,-5.087 -442.44,-14.478C-442.44,-23.869 -442.439,-33.26 -442.439,-42.651C-442.439,-52.042 -442.438,-61.433 -442.438,-70.823C-442.438,-80.214 -442.437,-89.605 -442.437,-98.996C-442.437,-108.387 -442.437,-117.778 -442.436,-127.169C-442.436,-136.56 -442.436,-145.951 -442.435,-155.342C-442.435,-164.733 -442.435,-174.124 -442.434,-183.515L-442.434,-211.688C-442.433,-221.079 -442.433,-230.47 -442.433,-239.86C-442.432,-244.932 -442.432,-250.003 -442.432,-255.074C-326.356,-255.766 -210.28,-256.458 -94.203,-257.149C-38.012,-257.484 20.973,-257.149 70.251,-230.177C128.165,-198.477 163.346,-130.184 156.729,-64.555C150.111,1.074 102.718,60.55 40.583,82.898C27.346,87.659 13.583,90.857 0,94.55Z" style="fill:none;fill-rule:nonzero;stroke:rgb(46,136,255);stroke-width:100px;"/>
                    </g>
                    <g transform="matrix(4.16667,0,0,4.16667,15932.2,21006.9)">
                        <path d="M0,-94.665C-9.676,-97.299 -19.262,-100.184 -28.502,-104.066C-48.978,-112.667 -67.819,-126.6 -78.839,-145.883C-90.821,-166.849 -92.589,-191.894 -99.009,-215.173C-114.075,-269.806 -157.391,-315.81 -211.019,-334.134C-264.646,-352.458 -327.057,-342.58 -372.405,-308.59C-378.217,-304.233 -383.738,-299.489 -388.933,-294.411C-394.15,-289.311 -399.039,-283.876 -403.573,-278.159C-408.11,-272.439 -412.291,-266.437 -416.095,-260.205C-419.9,-253.969 -423.327,-247.503 -426.353,-240.854C-429.379,-234.205 -432.004,-227.374 -434.204,-220.409C-436.403,-213.449 -438.179,-206.354 -439.505,-199.176C-440.83,-192.001 -441.707,-184.744 -442.111,-177.459C-442.312,-173.814 -442.396,-170.164 -442.358,-166.514C-442.34,-164.775 -441.998,-162.798 -442.264,-161.084C-442.586,-159.012 -442.445,-156.854 -442.445,-154.746C-442.445,-145.344 -442.445,-135.942 -442.444,-126.54C-442.444,-117.137 -442.444,-107.735 -442.443,-98.333L-442.443,-70.126C-442.442,-60.724 -442.442,-51.322 -442.442,-41.92C-442.441,-32.517 -442.441,-23.115 -442.441,-13.713C-442.44,-4.311 -442.44,5.092 -442.44,14.494C-442.44,23.896 -442.439,33.299 -442.439,42.701C-442.439,52.103 -442.438,61.505 -442.438,70.908C-442.438,80.31 -442.437,89.712 -442.437,99.114C-442.437,108.517 -442.437,117.919 -442.436,127.321C-442.436,136.723 -442.436,146.125 -442.435,155.528C-442.435,164.93 -442.435,174.332 -442.434,183.734L-442.434,211.941C-442.433,221.343 -442.433,230.746 -442.433,240.148C-442.432,245.225 -442.432,250.302 -442.432,255.38C-326.356,256.072 -210.28,256.765 -94.203,257.458C-38.012,257.793 20.973,257.458 70.251,230.453C128.165,198.715 163.346,130.34 156.729,64.632C150.111,-1.077 102.718,-60.624 40.583,-82.999C27.346,-87.766 13.583,-90.968 0,-94.665Z" style="fill:none;fill-rule:nonzero;stroke:rgb(46,136,255);stroke-width:120px;"/>
                    </g>
                </g>
            </g>
        </g>
    </g>
</svg>
